HIERARCHY
ROOT Hips
{
	OFFSET 0.000000 0.000000 0.000000
	CHANNELS 6 Xposition Yposition Zposition Zrotation Yrotation Xrotation 
	JOINT LHipJoint
	{
		OFFSET 0.000000 0.000000 0.000000
		CHANNELS 3 Zrotation Yrotation Xrotation
		JOINT LeftUpLeg
		{
			OFFSET 1.363060 -1.794630 0.839290
			CHANNELS 3 Zrotation Yrotation Xrotation
			JOINT LeftLeg
			{
				OFFSET 2.448110 -6.726130 0.000000
				CHANNELS 3 Zrotation Yrotation Xrotation
				JOINT LeftFoot
				{
					OFFSET 2.562200 -7.039590 0.000000
					CHANNELS 3 Zrotation Yrotation Xrotation
					JOINT LeftToeBase
					{
						OFFSET 0.157640 -0.433110 2.322550
						CHANNELS 3 Zrotation Yrotation Xrotation
						End Site
						{
							OFFSET 0.000000 0.000000 0.000000
						}
					}
				}
			}
		}
	}
	JOINT RHipJoint
	{
		OFFSET 0.000000 0.000000 0.000000
		CHANNELS 3 Zrotation Yrotation Xrotation
		JOINT RightUpLeg
		{
			OFFSET -1.305520 -1.794630 0.839290
			CHANNELS 3 Zrotation Yrotation Xrotation
			JOINT RightLeg
			{
				OFFSET -2.542530 -6.985550 0.000000
				CHANNELS 3 Zrotation Yrotation Xrotation
				JOINT RightFoot
				{
					OFFSET -2.568260 -7.056230 0.000000
					CHANNELS 3 Zrotation Yrotation Xrotation
					JOINT RightToeBase
					{
						OFFSET -0.164730 -0.452590 2.363150
						CHANNELS 3 Zrotation Yrotation Xrotation
						End Site
						{
							OFFSET 0.000000 0.000000 0.000000
						}
					}
				}
			}
		}
	}
	JOINT LowerBack
	{
		OFFSET 0.000000 0.000000 0.000000
		CHANNELS 3 Zrotation Yrotation Xrotation
		JOINT Spine
		{
			OFFSET 0.028270 2.035590 -0.193380
			CHANNELS 3 Zrotation Yrotation Xrotation
			JOINT Spine1
			{
				OFFSET 0.056720 2.048850 -0.042750
				CHANNELS 3 Zrotation Yrotation Xrotation
				JOINT Neck
				{
					OFFSET 0.000000 0.000000 0.000000
					CHANNELS 3 Zrotation Yrotation Xrotation
					JOINT Neck1
					{
						OFFSET -0.054170 1.746240 0.172020
						CHANNELS 3 Zrotation Yrotation Xrotation
						JOINT Head
						{
							OFFSET 0.104070 1.761360 -0.123970
							CHANNELS 3 Zrotation Yrotation Xrotation
							End Site
							{
								OFFSET 0.000000 0.000000 0.000000
							}
						}
					}
				}
				JOINT LeftShoulder
				{
					OFFSET 0.000000 0.000000 0.000000
					CHANNELS 3 Zrotation Yrotation Xrotation
					JOINT LeftArm
					{
						OFFSET 3.362410 1.200890 -0.311210
						CHANNELS 3 Zrotation Yrotation Xrotation
						JOINT LeftForeArm
						{
							OFFSET 4.983000 -0.000000 -0.000000
							CHANNELS 3 Zrotation Yrotation Xrotation
							JOINT LeftHand
							{
								OFFSET 3.483560 -0.000000 -0.000000
								CHANNELS 3 Zrotation Yrotation Xrotation
								JOINT LeftFingerBase
								{
									OFFSET 0.000000 0.000000 0.000000
									CHANNELS 3 Zrotation Yrotation Xrotation
									JOINT LeftHandIndex1
									{
										OFFSET 0.715260 -0.000000 -0.000000
										CHANNELS 3 Zrotation Yrotation Xrotation
										End Site
										{
											OFFSET 0.000000 0.000000 0.000000
										}
									}
								}
								JOINT LThumb
								{
									OFFSET 0.000000 0.000000 0.000000
									CHANNELS 3 Zrotation Yrotation Xrotation
									End Site
									{
										OFFSET 0.000000 0.000000 0.000000
									}
								}
							}
						}
					}
				}
				JOINT RightShoulder
				{
					OFFSET 0.000000 0.000000 0.000000
					CHANNELS 3 Zrotation Yrotation Xrotation
					JOINT RightArm
					{
						OFFSET -3.136600 1.374050 -0.404650
						CHANNELS 3 Zrotation Yrotation Xrotation
						JOINT RightForeArm
						{
							OFFSET -5.241900 -0.000000 -0.000000
							CHANNELS 3 Zrotation Yrotation Xrotation
							JOINT RightHand
							{
								OFFSET -3.444170 -0.000000 -0.000000
								CHANNELS 3 Zrotation Yrotation Xrotation
								JOINT RightFingerBase
								{
									OFFSET 0.000000 0.000000 0.000000
									CHANNELS 3 Zrotation Yrotation Xrotation
									JOINT RightHandIndex1
									{
										OFFSET -0.622530 -0.000000 -0.000000
										CHANNELS 3 Zrotation Yrotation Xrotation
										End Site
										{
											OFFSET 0.000000 0.000000 0.000000
										}
									}
								}
								JOINT RThumb
								{
									OFFSET 0.000000 0.000000 0.000000
									CHANNELS 3 Zrotation Yrotation Xrotation
									End Site
									{
										OFFSET 0.000000 0.000000 0.000000
									}
								}
							}
						}
					}
				}
			}
		}
	}
}
MOTION
Frames: 7
Frame Time: 0.008333
-1.008899 17.975477 6.441350 -5.001629 -4.361499 -1.890297 0.826394 4.980489 4.079443 -9.676549 -2.412243 19.230437 -1.562763 -6.602309 -14.607393 -5.708415 22.119439 -0.496214 0.264300 -3.307300 -9.135500 -0.467588 -4.084808 3.137574 -0.129096 2.673864 -5.982324 0.887790 -0.043093 1.306827 0.141287 -4.474712 13.472803 0.000000 0.000000 0.000000 2.457462 -1.084064 -1.868742 6.201129 -1.947388 11.430363 -1.163461 -0.742180 -12.940829 -3.891415 -1.637302 -12.663396 -21.867131 4.574887 34.159513 -5.135400 -1.645500 11.324300 -0.916471 -4.524773 -0.009930 20.553114 -38.072064 -37.921638 126.787161 -53.902681 -90.592419 -0.476239 1.406270 -88.668738 -32.839919 -6.483111 4.731100 -7.125000 0.000000 0.000000 -39.100800 19.510000 32.485700 -2.235649 3.034702 -0.238600 1.640849 35.522387 -15.428892 -160.146417 31.690298 -113.131236 -2.872299 3.838472 -60.089835 -34.714722 -48.268199 30.369100 7.125000 0.000000 0.000000 59.369400 -86.009000 -55.868700 
-1.010702 17.976078 6.443854 -5.027792 -4.382954 -1.872401 0.823840 4.980829 4.076361 -9.637166 -2.375609 19.211230 -1.561611 -6.599517 -14.597319 -5.703195 22.091117 -0.539597 0.250100 -3.217600 -8.885200 -0.471679 -4.083040 3.131662 -0.128651 2.673875 -5.983228 0.887786 -0.043538 1.306716 0.140951 -4.475128 13.472563 0.000000 0.000000 0.000000 2.434916 -1.056685 -1.744076 6.205048 -1.899693 11.369339 -1.196150 -0.724100 -12.974817 -3.977209 -1.711468 -12.459420 -21.823556 4.446460 34.113453 -5.122200 -1.694600 11.270600 -0.912406 -4.514123 -0.012735 20.641286 -37.993221 -38.665784 127.339812 -53.714531 -91.041585 -0.478175 1.413424 -87.868816 -32.803672 -6.986117 5.073000 -7.125000 0.000000 0.000000 -38.932700 19.046900 32.824900 -2.258794 3.025905 -0.240933 2.044993 35.807293 -15.841298 -160.252259 31.555064 -113.199162 -2.737754 3.802791 -59.265226 -33.709941 -47.122354 29.026900 7.125000 0.000000 0.000000 44.328400 -85.117500 -40.808600 
-1.012105 17.976078 6.445757 -5.084512 -4.363771 -1.845351 0.840064 4.976251 4.054610 -9.593944 -2.402983 19.215115 -1.561458 -6.594315 -14.593552 -5.710053 22.115538 -0.553851 0.252300 -3.231700 -8.924400 -0.462230 -4.073107 3.112100 -0.122994 2.672486 -5.989706 0.887484 -0.047503 1.305346 0.138982 -4.479110 13.471097 0.000000 0.000000 0.000000 2.358119 -1.050067 -1.534580 6.386732 -1.865626 11.143718 -1.279536 -0.718073 -13.024346 -4.204555 -1.850016 -12.468301 -21.733285 4.314112 34.312046 -5.104300 -1.772000 11.324200 -0.918451 -4.492563 0.004704 20.451768 -37.901436 -39.179933 128.113898 -53.441758 -91.667661 -0.477123 1.421744 -86.896896 -32.703783 -7.440129 5.369100 -7.125000 0.000000 0.000000 -38.757400 18.646900 33.061100 -2.297210 3.020622 -0.215992 2.572091 36.151727 -16.192832 -160.353999 31.424244 -113.277451 -2.535204 3.785131 -58.095962 -32.920003 -45.558624 27.744600 7.125000 0.000000 0.000000 30.798800 -83.792500 -27.472100 
-1.013707 17.975577 6.448361 -5.129751 -4.292422 -1.819283 0.861965 4.970644 4.030239 -9.564743 -2.480556 19.226747 -1.560303 -6.592961 -14.605758 -5.710624 22.127239 -0.534936 0.256100 -3.255900 -8.992000 -0.447723 -4.060884 3.090834 -0.116139 2.671095 -5.997026 0.887028 -0.051899 1.303836 0.136725 -4.483561 13.469554 0.000000 0.000000 0.000000 2.254386 -1.052175 -1.337061 6.635938 -1.840270 10.891945 -1.405663 -0.719518 -13.050765 -4.718457 -2.008664 -12.429458 -21.270770 4.113209 34.570420 -4.944500 -1.853800 11.383000 -0.917508 -4.476936 0.021503 20.335567 -37.853390 -39.862507 128.847225 -53.179386 -92.258091 -0.470322 1.429618 -85.744631 -32.716117 -7.926203 5.705800 -7.125000 0.000000 0.000000 -38.616000 18.184100 33.422600 -2.334050 3.028350 -0.186716 3.258003 36.579848 -16.512912 -160.386446 31.336418 -113.338142 -2.255903 3.762952 -56.456552 -32.196187 -43.585409 26.357300 7.125000 0.000000 0.000000 20.257100 -81.881700 -17.264500 
-1.015410 17.975577 6.450966 -5.099050 -4.229763 -1.803527 0.844854 4.967342 4.027398 -9.579607 -2.592255 19.249062 -1.559488 -6.598329 -14.637281 -5.724512 22.183961 -0.543998 0.247600 -3.201700 -8.840900 -0.467573 -4.058324 3.078661 -0.118006 2.672170 -5.996816 0.887193 -0.051081 1.304411 0.136817 -4.482545 13.469520 0.000000 0.000000 0.000000 2.271153 -1.023867 -1.261709 6.509852 -1.786299 10.792408 -1.466683 -0.704647 -13.024209 -4.909647 -2.168415 -12.210244 -21.090718 3.856396 34.562350 -4.901200 -1.950300 11.334300 -0.884665 -4.486043 0.014587 20.385347 -37.877414 -40.748796 129.538313 -52.923207 -92.816263 -0.458991 1.436970 -84.527795 -32.821527 -8.391788 6.047300 -7.125000 0.000000 0.000000 -38.517200 17.713200 33.854600 -2.364496 3.045158 -0.167635 4.286880 37.071226 -16.805943 -160.351038 31.254495 -113.388378 -1.907729 3.677490 -54.419889 -31.028054 -40.997708 24.311000 7.125000 0.000000 0.000000 13.151000 -78.969400 -10.419000 
-1.017013 17.977581 6.453169 -5.102706 -4.187572 -1.748302 0.822955 4.963567 4.021090 -9.553173 -2.661392 19.222602 -1.558168 -6.599222 -14.658680 -5.738072 22.240814 -0.526557 0.255100 -3.250000 -8.975400 -0.491880 -4.055523 3.062931 -0.119976 2.673358 -5.997500 0.887422 -0.050543 1.305005 0.136784 -4.481718 13.469254 0.000000 0.000000 0.000000 2.351970 -1.000847 -1.214096 6.343476 -1.734892 10.646110 -1.532044 -0.694131 -12.944315 -4.551429 -2.374452 -11.871436 -21.792436 3.563520 34.087684 -5.182800 -2.101800 11.132100 -0.875958 -4.519397 0.007449 20.336371 -37.886272 -41.546624 130.241670 -52.648841 -93.387168 -0.451619 1.439792 -83.428673 -32.762420 -8.885596 6.369300 -7.125000 0.000000 0.000000 -38.351600 17.270300 34.132500 -2.424721 3.073540 -0.157831 5.639169 37.716684 -17.066998 -160.211309 31.217312 -113.420145 -1.497843 3.484809 -52.395246 -29.441461 -37.526786 21.534900 7.125000 0.000000 0.000000 8.595600 -74.798400 -6.051300 
-1.018616 17.979985 6.455173 -5.159584 -4.153641 -1.743242 0.830647 4.983460 4.064266 -9.486138 -2.681372 19.171142 -1.557887 -6.603706 -14.668735 -5.736358 22.237220 -0.463235 0.283100 -3.422200 -9.456400 -0.480126 -4.067032 3.102258 -0.124582 2.677046 -5.987394 0.886878 -0.043942 1.307208 0.139422 -4.475504 13.472485 0.000000 0.000000 0.000000 2.289769 -1.010602 -1.501897 6.499582 -1.781945 11.101265 -1.694700 -0.712616 -12.871132 -4.880697 -2.654835 -11.880890 -21.327444 3.075426 34.020057 -5.084600 -2.273200 11.102400 -0.821987 -4.564845 -0.033185 20.228878 -37.891161 -42.455640 130.777972 -52.402936 -93.851910 -0.453489 1.429705 -82.528983 -32.359899 -9.551784 6.712800 -7.125000 0.000000 0.000000 -38.010300 16.782200 34.163800 -2.507751 3.129896 -0.209393 7.103227 38.541045 -17.463133 -159.850433 31.304238 -113.381829 -1.064543 3.163659 -50.789795 -27.610921 -33.270349 18.242800 7.125000 0.000000 0.000000 6.078200 -69.520200 -3.572000 
